<?xml version="1.0" encoding="UTF-8" standalone="no"?>
<svg width="19px" height="15px" viewBox="0 0 19 15" version="1.1" xmlns="http://www.w3.org/2000/svg" xmlns:xlink="http://www.w3.org/1999/xlink">
    <!-- Generator: Sketch 3.6 (26304) - http://www.bohemiancoding.com/sketch -->
    <title>twitter</title>
    <desc>Created with Sketch.</desc>
    <defs></defs>
    <g id="Page-1" stroke="none" stroke-width="1" fill="none" fill-rule="evenodd">
        <g id="Desktop-01" transform="translate(-1191.000000, -583.000000)" fill="#000000">
            <g id="social" transform="translate(1035.000000, 565.000000)">
                <g id="twitter" transform="translate(140.000000, 0.000000)">
                    <path d="M32.516,21.722 C32.524,21.884 32.527,22.048 32.527,22.21 C32.527,27.2 28.73,32.952 21.787,32.952 C19.654,32.952 17.671,32.327 16,31.255 C16.296,31.29 16.596,31.308 16.9,31.308 C18.67,31.308 20.297,30.704 21.588,29.693 C19.937,29.662 18.542,28.572 18.062,27.072 C18.292,27.115 18.529,27.138 18.772,27.138 C19.117,27.138 19.451,27.093 19.767,27.007 C18.04,26.659 16.739,25.134 16.739,23.304 L16.739,23.257 C17.248,23.54 17.831,23.71 18.449,23.73 C17.436,23.052 16.769,21.898 16.769,20.587 C16.769,19.896 16.955,19.247 17.281,18.689 C19.142,20.974 21.925,22.476 25.062,22.634 C24.998,22.357 24.965,22.07 24.965,21.773 C24.965,19.689 26.654,18 28.739,18 C29.825,18 30.806,18.457 31.495,19.191 C32.354,19.021 33.162,18.707 33.892,18.275 C33.61,19.156 33.011,19.896 32.232,20.363 C32.996,20.271 33.722,20.07 34.4,19.769 C33.894,20.527 33.254,21.191 32.516,21.722 L32.516,21.722 Z"></path>
                </g>
            </g>
        </g>
    </g>
</svg>