<?xml version="1.0" encoding="UTF-8" standalone="no"?>
<svg width="18px" height="18px" viewBox="0 0 18 18" version="1.1" xmlns="http://www.w3.org/2000/svg" xmlns:xlink="http://www.w3.org/1999/xlink">
    <!-- Generator: Sketch 3.6 (26304) - http://www.bohemiancoding.com/sketch -->
    <title>facebook</title>
    <desc>Created with Sketch.</desc>
    <defs></defs>
    <g id="Page-1" stroke="none" stroke-width="1" fill="none" fill-rule="evenodd">
        <g id="Desktop-01" transform="translate(-1051.000000, -581.000000)" fill="#000000">
            <g id="social" transform="translate(1035.000000, 565.000000)">
                <g id="facebook">
                    <path d="M32,16 L18,16 C16.9,16 16,16.9 16,18 L16,32 C16,33.101 16.9,34 18,34 L25,34 L25,27 L23,27 L23,24.525 L25,24.525 L25,22.475 C25,20.311 26.212,18.791 28.766,18.791 L30.569,18.793 L30.569,21.398 L29.372,21.398 C28.378,21.398 28,22.144 28,22.836 L28,24.526 L30.568,24.526 L30,27 L28,27 L28,34 L32,34 C33.1,34 34,33.101 34,32 L34,18 C34,16.9 33.1,16 32,16 L32,16 Z"></path>
                </g>
            </g>
        </g>
    </g>
</svg>