<?xml version="1.0" encoding="UTF-8" standalone="no"?>
<svg width="18px" height="18px" viewBox="0 0 18 18" version="1.1" xmlns="http://www.w3.org/2000/svg" xmlns:xlink="http://www.w3.org/1999/xlink">
    <!-- Generator: Sketch 3.6 (26304) - http://www.bohemiancoding.com/sketch -->
    <title>instagram</title>
    <desc>Created with Sketch.</desc>
    <defs></defs>
    <g id="Page-1" stroke="none" stroke-width="1" fill="none" fill-rule="evenodd">
        <g id="Desktop-01" transform="translate(-1121.000000, -581.000000)" fill="#000000">
            <g id="social" transform="translate(1035.000000, 565.000000)">
                <g id="instagram" transform="translate(70.000000, 0.000000)">
                    <path d="M32,16 L18,16 C16.9,16 16,16.9 16,18 L16,32 C16,33.101 16.9,34 18,34 L32,34 C33.1,34 34,33.101 34,32 L34,18 C34,16.9 33.1,16 32,16 L32,16 Z M24.984,30.523 C28.043,30.523 30.522,28.042 30.522,24.984 C30.522,24.646 30.479,24.32 30.419,24 L32,24 L32,31.216 C32,31.598 31.69,31.906 31.307,31.906 L18.693,31.906 C18.31,31.906 18,31.598 18,31.216 L18,24 L19.549,24 C19.488,24.32 19.445,24.646 19.445,24.984 C19.445,28.043 21.926,30.523 24.984,30.523 L24.984,30.523 Z M21.523,24.984 C21.523,23.072 23.073,21.523 24.985,21.523 C26.896,21.523 28.447,23.072 28.447,24.984 C28.447,26.896 26.896,28.446 24.985,28.446 C23.072,28.446 21.523,26.896 21.523,24.984 L21.523,24.984 Z M31.307,21 L29.692,21 C29.31,21 29,20.688 29,20.308 L29,18.691 C29,18.309 29.31,18 29.691,18 L31.306,18 C31.69,18 32,18.309 32,18.691 L32,20.307 C32,20.688 31.69,21 31.307,21 L31.307,21 Z"></path>
                </g>
            </g>
        </g>
    </g>
</svg>