<?xml version="1.0" encoding="UTF-8" standalone="no"?>
<svg width="68px" height="30px" viewBox="0 0 68 30" version="1.1" xmlns="http://www.w3.org/2000/svg" xmlns:xlink="http://www.w3.org/1999/xlink">
    <!-- Generator: Sketch 3.6 (26304) - http://www.bohemiancoding.com/sketch -->
    <title>logo-w</title>
    <desc>Created with Sketch.</desc>
    <defs></defs>
    <g id="Page-1" stroke="none" stroke-width="1" fill="none" fill-rule="evenodd">
        <g id="Desktop-04" transform="translate(-55.000000, -40.000000)" fill="#FFFFFF">
            <path d="M55,66.136 L58.456,69.196 L59.284,69.196 L59.284,53.644 L62.38,52.204 L66.088,52.204 L66.088,66.136 L69.544,69.196 L70.372,69.196 L70.372,53.644 L73.468,52.204 L77.176,52.204 L77.176,66.136 L80.632,69.196 L81.46,69.196 L81.46,53.824 C81.46,52.384 81.064,51.628 79.228,50.008 C77.32,48.352 76.78,48.208 75.232,48.208 L72.244,48.208 L68.212,50.116 C66.34,48.532 65.872,48.208 64.144,48.208 L61.192,48.208 L57.844,49.792 L55.828,48.028 L55,48.028 L55,66.136 Z M91.684,59.044 L94.996,61.168 L102.376,58.108 L102.376,53.572 C102.34,52.312 101.872,51.556 100.144,50.008 C98.236,48.352 97.732,48.208 96.184,48.208 L89.74,48.208 C87.58,48.208 86.212,49.468 86.212,51.772 L86.212,63.328 C86.212,64.768 86.752,65.524 88.588,67.144 C90.496,68.8 91.036,68.944 92.584,68.944 L102.34,68.944 L102.34,68.044 L99.1,65.128 L90.46,65.128 L90.46,53.14 C90.46,52.384 90.784,52.06 91.432,52.06 L98.272,52.06 L98.272,55.588 L91.684,58.432 L91.684,59.044 Z M106.804,40 L106.804,66.136 L110.26,69.196 L111.088,69.196 L111.088,53.572 L114.112,52.204 L118.72,52.204 L118.72,66.136 L122.176,69.196 L122.968,69.196 L122.968,53.824 C122.968,52.384 122.608,51.628 120.736,50.008 C118.828,48.352 118.324,48.208 116.776,48.208 L112.996,48.208 L111.088,49.072 L111.088,43.024 L107.632,40 L106.804,40 Z" id="logo-w"></path>
        </g>
    </g>
</svg>